<?xml version="1.0" standalone="no"?>
<!DOCTYPE svg PUBLIC "-//W3C//DTD SVG 20010904//EN"
 "http://www.w3.org/TR/2001/REC-SVG-20010904/DTD/svg10.dtd">
<svg version="1.0" xmlns="http://www.w3.org/2000/svg"
 width="512.000000pt" height="436.000000pt" viewBox="0 0 512.000000 436.000000"
 preserveAspectRatio="xMidYMid meet">

<g transform="translate(0.000000,436.000000) scale(0.100000,-0.100000)"
fill="#000000" stroke="none">
<path d="M2035 3690 c-3 -6 1 -7 9 -4 18 7 21 14 7 14 -6 0 -13 -4 -16 -10z"/>
<path d="M2255 3670 c3 -5 11 -10 16 -10 6 0 7 5 4 10 -3 6 -11 10 -16 10 -6
0 -7 -4 -4 -10z"/>
<path d="M1989 3658 c-5 -19 -8 -50 -4 -46 7 7 15 48 9 48 -2 0 -4 -1 -5 -2z"/>
<path d="M3121 3635 c-43 -19 -106 -74 -106 -94 0 -8 -7 -16 -15 -18 -13 -4
-13 -3 0 6 8 6 10 11 4 11 -5 0 -32 -20 -60 -44 -27 -25 -99 -89 -161 -143
-61 -54 -112 -100 -112 -103 -1 -11 87 -98 94 -92 4 4 5 2 3 -4 -4 -15 103
-143 120 -143 6 -1 11 -5 10 -9 -2 -5 16 -29 38 -54 l42 -45 33 31 c19 17 73
66 121 110 48 43 85 83 81 89 -3 6 -1 7 6 3 6 -4 17 -1 25 6 7 7 43 40 80 72
69 61 102 108 90 128 -4 6 -3 8 3 5 13 -8 23 25 23 74 0 86 -52 169 -132 210
-45 23 -138 25 -187 4z m189 -20 c0 -2 -10 -9 -22 -15 -22 -11 -22 -10 -4 4
21 17 26 19 26 11z m-15 -80 c18 -13 36 -21 40 -17 3 4 6 3 4 -3 -1 -5 8 -32
20 -58 27 -58 22 -112 -15 -169 -20 -31 -21 -36 -6 -32 14 5 14 4 2 -4 -8 -6
-18 -8 -22 -5 -5 2 -47 -30 -94 -73 -62 -56 -82 -79 -72 -86 9 -6 7 -7 -8 -6
-24 3 -118 -77 -109 -92 3 -6 0 -7 -8 -4 -8 3 -18 1 -22 -5 -10 -16 -35 -13
-35 4 0 9 7 18 16 22 8 3 13 12 10 20 -4 8 -1 11 5 8 13 -9 50 25 42 38 -3 5
-2 7 4 4 16 -10 113 81 107 101 -5 14 -4 15 5 2 5 -8 13 -11 17 -7 4 3 1 15
-7 24 -11 15 -11 16 1 6 17 -16 34 -17 25 -3 -4 6 -1 9 7 8 7 -2 12 4 10 12
-2 8 0 12 3 8 4 -4 27 9 51 28 54 44 80 106 70 166 -9 52 -51 112 -74 103 -9
-3 -13 -3 -9 1 4 5 -3 14 -15 21 l-23 12 24 1 c13 0 39 -11 56 -25z m112 -147
c-3 -8 -6 -5 -6 6 -1 11 2 17 5 13 3 -3 4 -12 1 -19z m-567 -12 c0 -2 -8 -10
-17 -17 -16 -13 -17 -12 -4 4 13 16 21 21 21 13z m213 -261 c-3 -9 -8 -14 -10
-11 -3 3 -2 9 2 15 9 16 15 13 8 -4z"/>
<path d="M2027 3626 c-4 -10 -1 -13 8 -9 8 3 12 9 9 14 -7 12 -11 11 -17 -5z"/>
<path d="M2055 3600 c-3 -6 1 -7 9 -4 18 7 21 14 7 14 -6 0 -13 -4 -16 -10z"/>
<path d="M2010 3589 c0 -5 5 -7 10 -4 6 3 10 8 10 11 0 2 -4 4 -10 4 -5 0 -10
-5 -10 -11z"/>
<path d="M1941 3524 c0 -11 3 -14 6 -6 3 7 2 16 -1 19 -3 4 -6 -2 -5 -13z"/>
<path d="M1912 3510 c0 -14 2 -19 5 -12 2 6 2 18 0 25 -3 6 -5 1 -5 -13z"/>
<path d="M2416 3507 c3 -10 9 -15 12 -12 3 3 0 11 -7 18 -10 9 -11 8 -5 -6z"/>
<path d="M2021 3474 c0 -11 3 -14 6 -6 3 7 2 16 -1 19 -3 4 -6 -2 -5 -13z"/>
<path d="M1911 3469 c-1 -18 20 -82 25 -77 2 2 -3 24 -11 48 -7 25 -14 38 -14
29z"/>
<path d="M1958 3426 c-2 -19 -1 -33 3 -30 4 2 10 -2 13 -8 3 -7 3 5 -1 27 -7
52 -10 54 -15 11z"/>
<path d="M2479 3438 c7 -9 9 -23 5 -30 -6 -10 -4 -11 7 0 11 10 10 15 -6 30
-17 15 -18 15 -6 0z"/>
<path d="M2020 3424 c0 -10 5 -26 10 -34 8 -11 9 -7 4 15 -8 37 -14 45 -14 19z"/>
<path d="M2520 3393 c0 -6 8 -17 18 -24 16 -13 16 -13 2 6 -8 11 -16 22 -17
24 -2 2 -3 0 -3 -6z"/>
<path d="M2560 3346 c0 -2 8 -10 18 -17 15 -13 16 -12 3 4 -13 16 -21 21 -21
13z"/>
<path d="M2015 3278 c27 -29 51 -55 53 -58 3 -3 -1 6 -8 20 -9 16 -10 25 -2
28 6 2 2 13 -10 28 -12 13 -23 22 -26 19 -2 -2 3 -12 12 -21 9 -9 14 -19 11
-23 -4 -3 -20 9 -36 27 -16 17 -32 32 -35 32 -4 0 15 -24 41 -52z"/>
<path d="M2090 3311 c0 -6 4 -13 10 -16 6 -3 7 1 4 9 -7 18 -14 21 -14 7z"/>
<path d="M2137 3255 c12 -16 34 -41 49 -55 36 -32 13 0 -35 50 -32 32 -33 32
-14 5z"/>
<path d="M2589 3204 c-23 -25 -23 -26 -2 -13 13 7 25 19 27 26 8 19 2 16 -25
-13z"/>
<path d="M2086 3211 c-3 -5 2 -15 12 -22 15 -12 16 -12 5 2 -7 9 -10 19 -6 22
3 4 4 7 0 7 -3 0 -8 -4 -11 -9z"/>
<path d="M1950 3166 c-30 -12 -63 -25 -73 -29 -10 -4 -16 -11 -12 -17 6 -9 17
-6 102 31 24 11 47 19 52 19 6 0 13 5 16 10 10 16 -25 10 -85 -14z"/>
<path d="M2165 3151 c4 -8 2 -17 -6 -22 -9 -6 -10 -9 -2 -9 19 0 27 21 13 33
-10 9 -11 9 -5 -2z"/>
<path d="M1970 3131 c-25 -10 -53 -21 -62 -24 -16 -6 -16 -10 2 -64 10 -32 42
-143 70 -248 28 -104 60 -217 70 -250 10 -33 24 -79 30 -102 l11 -43 139 0
c84 0 140 4 140 10 0 21 -34 79 -43 73 -6 -3 -7 -1 -3 5 6 9 -11 59 -24 72 -3
3 -6 10 -7 15 -1 6 -34 78 -74 160 -40 83 -73 153 -73 156 -2 13 -121 258
-126 258 -3 0 -25 -8 -50 -18z m97 -269 c6 -4 12 -20 14 -37 4 -57 1 -65 -31
-65 -28 0 -29 2 -27 43 4 60 16 77 44 59z"/>
<path d="M2570 3125 c-16 -19 -5 -47 17 -43 22 4 29 43 9 51 -8 3 -20 -1 -26
-8z m20 -25 c0 -5 -2 -10 -4 -10 -3 0 -8 5 -11 10 -3 6 -1 10 4 10 6 0 11 -4
11 -10z"/>
<path d="M2722 3120 c0 -14 2 -19 5 -12 2 6 2 18 0 25 -3 6 -5 1 -5 -13z"/>
<path d="M2170 3105 c0 -2 6 -8 13 -14 10 -8 14 -7 14 2 0 8 -6 14 -14 14 -7
0 -13 -1 -13 -2z"/>
<path d="M2668 3083 c6 -2 18 -2 25 0 6 3 1 5 -13 5 -14 0 -19 -2 -12 -5z"/>
<path d="M2246 3056 c3 -8 13 -17 22 -21 13 -5 13 -2 -3 15 -21 24 -26 25 -19
6z"/>
<path d="M2500 3046 c0 -9 7 -16 16 -16 9 0 14 5 12 12 -6 18 -28 21 -28 4z"/>
<path d="M2260 3005 c19 -19 36 -35 39 -35 3 0 -10 16 -29 35 -19 19 -36 35
-39 35 -3 0 10 -16 29 -35z"/>
<path d="M2615 3033 c11 -3 26 -10 33 -15 9 -8 11 -7 6 6 -4 10 -16 16 -33 15
-20 -1 -22 -2 -6 -6z"/>
<path d="M2731 3024 c0 -11 3 -14 6 -6 3 7 2 16 -1 19 -3 4 -6 -2 -5 -13z"/>
<path d="M2280 3016 c0 -2 8 -10 18 -17 15 -13 16 -12 3 4 -13 16 -21 21 -21
13z"/>
<path d="M2370 3009 c0 -5 5 -7 10 -4 6 3 10 8 10 11 0 2 -4 4 -10 4 -5 0 -10
-5 -10 -11z"/>
<path d="M2325 2970 c-16 -11 -25 -20 -19 -20 11 0 64 39 54 40 -3 0 -18 -9
-35 -20z"/>
<path d="M2520 2974 c-11 -12 -11 -18 2 -30 19 -19 48 -8 48 18 0 14 -5 18
-16 14 -8 -3 -12 -2 -9 4 10 16 -11 11 -25 -6z"/>
<path d="M2788 2955 c-8 -19 -9 -28 0 -37 8 -8 10 -6 6 9 -3 11 2 27 11 37 9
9 12 16 5 16 -6 0 -16 -11 -22 -25z"/>
<path d="M2836 2935 c-9 -26 -7 -32 5 -12 6 10 9 21 6 23 -2 3 -7 -2 -11 -11z"/>
<path d="M2620 2919 c0 -5 5 -7 10 -4 6 3 10 8 10 11 0 2 -4 4 -10 4 -5 0 -10
-5 -10 -11z"/>
<path d="M2733 2903 c-18 -6 -16 -40 1 -46 8 -3 20 1 27 9 10 12 9 18 -2 28
-8 8 -20 12 -26 9z"/>
<path d="M2874 2890 c2 -16 20 -14 24 2 3 10 2 10 -6 -1 -7 -9 -11 -10 -15 -2
-4 7 -5 8 -3 1z"/>
<path d="M2580 2876 c0 -23 -26 -31 -48 -15 -15 13 -16 12 -3 -3 18 -24 48
-23 56 3 4 11 4 23 1 26 -3 4 -6 -1 -6 -11z"/>
<path d="M2832 2840 c16 -26 2 -37 -25 -21 -21 13 -21 12 -5 -4 9 -10 23 -15
32 -12 20 8 21 43 1 51 -12 4 -13 2 -3 -14z"/>
<path d="M2461 2831 c-19 -12 -6 -41 19 -41 16 0 21 5 18 22 -3 25 -17 32 -37
19z"/>
<path d="M2631 2832 c-1 -8 -6 -10 -13 -6 -10 5 -10 4 -1 -6 15 -16 28 -8 20
12 -4 11 -6 11 -6 0z"/>
<path d="M2710 2795 c0 -8 5 -15 10 -15 6 0 10 7 10 15 0 8 -4 15 -10 15 -5 0
-10 -7 -10 -15z"/>
<path d="M2562 2784 c9 -3 19 -13 22 -22 3 -12 4 -12 3 3 -1 12 -10 21 -22 22
-15 1 -15 0 -3 -3z"/>
<path d="M2764 2755 c-4 -10 -1 -21 7 -26 20 -12 34 -5 34 17 0 24 -33 31 -41
9z"/>
<path d="M2447 2733 c-12 -11 -8 -23 8 -23 8 0 15 7 15 15 0 16 -12 20 -23 8z"/>
<path d="M2665 2699 c-11 -16 -1 -19 13 -3 7 8 8 14 3 14 -5 0 -13 -5 -16 -11z"/>
<path d="M2705 2700 c3 -5 8 -10 11 -10 2 0 4 5 4 10 0 6 -5 10 -11 10 -5 0
-7 -4 -4 -10z"/>
<path d="M2497 2686 c-7 -18 18 -40 37 -33 8 3 13 14 12 24 -3 22 -41 30 -49
9z m30 -11 c0 -8 -4 -12 -9 -9 -5 3 -6 10 -3 15 9 13 12 11 12 -6z"/>
<path d="M2613 2635 c-3 -9 -3 -18 0 -22 10 -10 37 6 37 22 0 20 -29 20 -37 0z"/>
<path d="M2680 2595 c-7 -8 -9 -15 -6 -15 4 0 14 7 22 15 9 8 11 15 6 15 -5 0
-15 -7 -22 -15z"/>
<path d="M2702 2574 c-14 -16 -5 -18 17 -5 7 5 9 11 5 14 -5 3 -15 -1 -22 -9z"/>
<path d="M2408 2573 c28 -2 76 -2 105 0 28 2 5 3 -53 3 -58 0 -81 -1 -52 -3z"/>
<path d="M2580 2572 c8 -3 18 -10 23 -16 5 -8 9 -8 15 0 4 6 14 13 22 16 8 3
-5 6 -30 5 -25 0 -38 -2 -30 -5z"/>
<path d="M2798 2563 c18 -2 45 -2 60 0 15 2 0 4 -33 4 -33 0 -45 -2 -27 -4z"/>
<path d="M2913 2553 c9 -2 25 -2 35 0 9 3 1 5 -18 5 -19 0 -27 -2 -17 -5z"/>
<path d="M1952 2538 c-30 -5 -51 -12 -49 -14 5 -6 137 16 137 22 0 6 -26 3
-88 -8z"/>
<path d="M3008 2543 c6 -2 18 -2 25 0 6 3 1 5 -13 5 -14 0 -19 -2 -12 -5z"/>
<path d="M2645 2530 c-4 -7 -3 -16 3 -22 14 -14 45 -2 40 15 -6 16 -34 21 -43
7z"/>
<path d="M3068 2533 c7 -3 16 -2 19 1 4 3 -2 6 -13 5 -11 0 -14 -3 -6 -6z"/>
<path d="M3208 2533 c6 -2 18 -2 25 0 6 3 1 5 -13 5 -14 0 -19 -2 -12 -5z"/>
<path d="M3140 2520 c34 -11 60 -11 35 0 -11 5 -29 8 -40 8 -16 0 -15 -2 5 -8z"/>
<path d="M3251 2526 c12 -10 60 -16 54 -6 -3 5 -18 10 -32 10 -15 0 -24 -2
-22 -4z"/>
<path d="M1825 2505 c-39 -14 -40 -14 -5 -8 41 7 82 22 60 22 -8 0 -33 -7 -55
-14z"/>
<path d="M3388 2503 c7 -3 16 -2 19 1 4 3 -2 6 -13 5 -11 0 -14 -3 -6 -6z"/>
<path d="M3290 2475 c14 -8 30 -14 35 -14 6 0 -1 6 -15 14 -14 8 -29 14 -35
14 -5 0 1 -6 15 -14z"/>
<path d="M1731 2471 c-9 -6 -10 -11 -2 -15 6 -4 11 -3 11 3 0 5 8 12 18 14 12
3 13 5 2 6 -8 0 -21 -3 -29 -8z"/>
<path d="M2675 2450 c-3 -6 1 -7 9 -4 18 7 21 14 7 14 -6 0 -13 -4 -16 -10z"/>
<path d="M2711 2434 c0 -11 3 -14 6 -6 3 7 2 16 -1 19 -3 4 -6 -2 -5 -13z"/>
<path d="M3358 2432 c9 -10 19 -17 21 -16 6 5 -20 34 -30 34 -5 0 -1 -8 9 -18z"/>
<path d="M2672 2414 c10 -10 20 -16 22 -13 3 3 -5 11 -17 18 -21 13 -21 12 -5
-5z"/>
<path d="M2623 2393 c-18 -6 -16 -30 2 -37 9 -3 18 1 22 10 7 18 -7 33 -24 27z"/>
<path d="M3298 2343 c7 -3 16 -2 19 1 4 3 -2 6 -13 5 -11 0 -14 -3 -6 -6z"/>
<path d="M3255 2330 c-16 -7 -17 -9 -3 -9 9 -1 20 4 23 9 7 11 7 11 -20 0z"/>
<path d="M1810 2320 c-9 -6 -10 -10 -3 -10 6 0 15 5 18 10 8 12 4 12 -15 0z"/>
<path d="M3171 2309 c-18 -6 -31 -12 -29 -14 5 -5 78 14 78 20 0 6 -8 5 -49
-6z"/>
<path d="M1848 2303 c7 -3 16 -2 19 1 4 3 -2 6 -13 5 -11 0 -14 -3 -6 -6z"/>
<path d="M1910 2300 c8 -5 20 -10 25 -10 6 0 3 5 -5 10 -8 5 -19 10 -25 10 -5
0 -3 -5 5 -10z"/>
<path d="M2600 2300 c0 -5 5 -10 10 -10 6 0 10 5 10 10 0 6 -4 10 -10 10 -5 0
-10 -4 -10 -10z"/>
<path d="M2672 2260 c0 -14 2 -19 5 -12 2 6 2 18 0 25 -3 6 -5 1 -5 -13z"/>
<path d="M2155 2260 c-3 -6 1 -7 9 -4 18 7 21 14 7 14 -6 0 -13 -4 -16 -10z"/>
<path d="M2240 2250 c0 -5 5 -10 10 -10 6 0 10 5 10 10 0 6 -4 10 -10 10 -5 0
-10 -4 -10 -10z"/>
<path d="M2281 2256 c2 -2 18 -6 34 -10 22 -5 26 -4 15 4 -14 9 -59 15 -49 6z"/>
<path d="M2420 2246 c0 -2 7 -6 15 -10 8 -3 15 -1 15 4 0 6 -7 10 -15 10 -8 0
-15 -2 -15 -4z"/>
<path d="M1652 2205 c0 -16 2 -22 5 -12 2 9 2 23 0 30 -3 6 -5 -1 -5 -18z"/>
<path d="M1661 2144 c0 -11 3 -14 6 -6 3 7 2 16 -1 19 -3 4 -6 -2 -5 -13z"/>
<path d="M1672 2090 c0 -14 2 -19 5 -12 2 6 2 18 0 25 -3 6 -5 1 -5 -13z"/>
<path d="M2583 2038 c-34 -58 -73 -183 -73 -235 0 -62 16 -118 46 -162 l24
-36 0 131 c0 101 3 134 14 143 12 10 15 0 21 -61 4 -40 5 -104 3 -141 -1 -37
0 -67 4 -67 4 0 20 19 35 43 26 39 28 49 28 147 0 102 -2 108 -41 189 l-40 85
-21 -36z m54 -390 c-3 -8 -6 -5 -6 6 -1 11 2 17 5 13 3 -3 4 -12 1 -19z"/>
<path d="M1698 1999 c2 -16 9 -29 14 -29 5 0 6 -4 3 -10 -3 -5 -2 -18 4 -27 8
-15 9 -13 7 10 -1 15 -6 30 -9 34 -4 3 -7 14 -7 24 0 10 -4 20 -8 23 -5 3 -6
-8 -4 -25z"/>
<path d="M1745 1889 c-4 -6 -4 -13 -1 -16 3 -4 6 0 6 8 0 11 2 11 10 -1 13
-20 13 -33 0 -25 -6 4 -7 -1 -3 -11 5 -15 7 -15 15 0 5 10 5 23 -2 36 -12 23
-16 24 -25 9z"/>
<path d="M2894 1841 c-63 -29 -143 -100 -146 -130 -4 -41 -6 -92 -3 -89 33 36
74 102 69 110 -4 7 -3 8 4 4 6 -4 19 5 28 19 20 30 30 32 30 6 0 -11 -4 -17
-8 -15 -11 7 -48 -57 -41 -69 3 -6 1 -7 -4 -4 -10 6 -69 -60 -62 -68 2 -2 21
3 43 10 55 19 101 69 125 134 19 55 36 121 29 121 -2 -1 -31 -14 -64 -29z
m-34 -35 c0 -2 -8 -10 -17 -17 -16 -13 -17 -12 -4 4 13 16 21 21 21 13z"/>
<path d="M2220 1846 c0 -20 57 -133 81 -161 31 -35 94 -67 126 -63 25 3 25 4
8 18 -11 8 -16 10 -11 3 5 -9 2 -11 -8 -7 -9 3 -14 9 -11 13 2 4 -17 29 -44
55 -36 36 -52 45 -67 39 -18 -7 -18 -6 -1 11 19 19 24 17 67 -24 3 -3 29 -27
58 -55 l53 -50 -7 40 c-11 74 -46 116 -130 159 -47 23 -114 37 -114 22z m170
-76 c0 -5 -5 -10 -11 -10 -5 0 -7 5 -4 10 3 6 8 10 11 10 2 0 4 -4 4 -10z"/>
<path d="M3346 1843 c-6 -14 -5 -15 5 -6 7 7 10 15 7 18 -3 3 -9 -2 -12 -12z"/>
<path d="M1787 1817 c-3 -7 3 -13 14 -13 13 0 15 3 7 13 -6 7 -12 13 -13 13
-2 0 -5 -6 -8 -13z"/>
<path d="M3315 1799 c-4 -6 -5 -12 -2 -15 2 -3 7 2 10 11 7 17 1 20 -8 4z"/>
<path d="M1817 1771 c-4 -17 -3 -21 5 -13 5 5 8 16 6 23 -3 8 -7 3 -11 -10z"/>
<path d="M2080 1536 c0 -3 9 -10 20 -16 11 -6 20 -8 20 -6 0 3 -9 10 -20 16
-11 6 -20 8 -20 6z"/>
<path d="M2068 1343 c7 -3 16 -2 19 1 4 3 -2 6 -13 5 -11 0 -14 -3 -6 -6z"/>
<path d="M2028 1333 c7 -3 16 -2 19 1 4 3 -2 6 -13 5 -11 0 -14 -3 -6 -6z"/>
<path d="M3318 1333 c7 -3 16 -2 19 1 4 3 -2 6 -13 5 -11 0 -14 -3 -6 -6z"/>
<path d="M1850 1301 c0 -6 4 -13 10 -16 6 -3 7 1 4 9 -7 18 -14 21 -14 7z"/>
<path d="M2048 1243 c6 -2 18 -2 25 0 6 3 1 5 -13 5 -14 0 -19 -2 -12 -5z"/>
<path d="M3248 1243 c6 -2 18 -2 25 0 6 3 1 5 -13 5 -14 0 -19 -2 -12 -5z"/>
<path d="M2168 1233 c7 -3 16 -2 19 1 4 3 -2 6 -13 5 -11 0 -14 -3 -6 -6z"/>
<path d="M2343 1223 c15 -2 37 -2 50 0 12 2 0 4 -28 4 -27 0 -38 -2 -22 -4z"/>
<path d="M2448 1223 c6 -2 18 -2 25 0 6 3 1 5 -13 5 -14 0 -19 -2 -12 -5z"/>
<path d="M251 201 c-26 -35 -26 -41 -3 -40 10 0 12 3 5 6 -9 3 -8 11 4 29 12
19 18 22 24 12 7 -10 9 -9 9 5 0 25 -16 21 -39 -12z"/>
<path d="M327 223 c-3 -5 8 -8 24 -9 15 -1 26 3 23 7 -6 11 -41 12 -47 2z"/>
<path d="M431 201 c-26 -35 -26 -41 -3 -40 10 0 12 3 5 6 -9 3 -8 11 4 29 12
19 18 22 24 12 7 -10 9 -9 9 5 0 25 -16 21 -39 -12z"/>
<path d="M521 201 c-26 -35 -26 -41 -3 -40 10 0 12 3 5 6 -9 3 -8 11 4 29 12
19 18 22 24 12 7 -10 9 -9 9 5 0 25 -16 21 -39 -12z"/>
<path d="M590 204 c0 -14 4 -23 10 -19 5 3 7 12 4 20 -4 9 4 15 23 18 27 4 27
4 -4 6 -29 1 -33 -2 -33 -25z"/>
<path d="M694 218 c-4 -6 -3 -8 4 -4 5 3 13 0 15 -6 3 -8 6 -6 6 5 1 19 -14
23 -25 5z"/>
<path d="M777 223 c-3 -5 8 -8 24 -9 15 -1 26 3 23 7 -6 11 -41 12 -47 2z"/>
<path d="M860 226 c0 -8 61 -12 66 -4 3 4 -11 8 -30 8 -20 0 -36 -2 -36 -4z"/>
<path d="M957 223 c-3 -5 8 -8 24 -9 15 -1 26 3 23 7 -6 11 -41 12 -47 2z"/>
<path d="M107 203 c-10 -10 -8 -33 3 -33 5 0 7 7 3 16 -5 14 -1 16 20 12 15
-3 24 -1 21 3 -6 11 -38 12 -47 2z"/>
<path d="M347 165 l-28 -35 23 1 c13 0 17 3 10 6 -10 4 -8 11 9 29 12 13 20
26 18 28 -3 3 -17 -10 -32 -29z"/>
<path d="M620 196 c0 -2 7 -7 16 -10 8 -3 12 -2 9 4 -6 10 -25 14 -25 6z"/>
<path d="M797 165 l-28 -35 23 1 c13 0 17 3 10 6 -10 4 -8 11 9 29 12 13 20
26 18 28 -3 3 -17 -10 -32 -29z"/>
<path d="M887 165 c-9 -19 -15 -35 -12 -35 7 0 37 61 33 66 -3 2 -12 -12 -21
-31z"/>
<path d="M977 165 l-28 -35 23 1 c13 0 17 3 10 6 -10 4 -8 11 9 29 12 13 20
26 18 28 -3 3 -17 -10 -32 -29z"/>
<path d="M277 176 c-3 -8 -2 -18 3 -21 13 -8 20 9 11 24 -6 10 -10 9 -14 -3z"/>
<path d="M457 176 c-3 -8 -2 -18 3 -21 13 -8 20 9 11 24 -6 10 -10 9 -14 -3z"/>
<path d="M547 176 c-3 -8 -2 -18 3 -21 13 -8 20 9 11 24 -6 10 -10 9 -14 -3z"/>
<path d="M710 166 c0 -13 -6 -27 -12 -29 -7 -3 -4 -6 8 -6 17 -1 20 4 16 29
-5 36 -12 39 -12 6z"/>
<path d="M130 166 c0 -2 7 -6 15 -10 8 -3 15 -1 15 4 0 6 -7 10 -15 10 -8 0
-15 -2 -15 -4z"/>
<path d="M188 163 c6 -2 18 -2 25 0 6 3 1 5 -13 5 -14 0 -19 -2 -12 -5z"/>
<path d="M646 154 c-4 -11 -14 -15 -31 -12 -13 3 -22 1 -19 -3 8 -14 40 -10
54 6 7 9 11 18 8 21 -3 3 -8 -3 -12 -12z"/>
<path d="M108 138 c6 -6 18 -8 28 -6 14 3 12 5 -9 10 -19 3 -25 2 -19 -4z"/>
</g>
</svg>
